<?xml version="1.0" encoding="utf-8"?>
<!-- Generator: Adobe Illustrator 26.5.2, SVG Export Plug-In . SVG Version: 6.00 Build 0)  -->
<svg version="1.1" id="レイヤー_1" xmlns="http://www.w3.org/2000/svg" xmlns:xlink="http://www.w3.org/1999/xlink" x="0px"
	 y="0px" viewBox="0 0 120 120" style="enable-background:new 0 0 120 120;" xml:space="preserve">
<style type="text/css">
	.st0{enable-background:new    ;}
	.st1{fill:#887777;}
	.st2{fill:none;stroke:#FFFFFF;stroke-width:2.5512;stroke-miterlimit:10;}
	.st3{fill:#FFFFFF;}
</style>
<g class="st0">
	<path class="st1" d="M60.3,0.9c7.8,0,58.2,0,58.2,38.6c0,21.2-16.3,39.8-52.9,39.8H46c-5.5,0-5.5,1.6-5.5,17.1
		c0,2.1,0,6.7,2.2,10.2c3.3,4.7,8.4,5.7,13.7,5.7c4.5,0,6.9,0,6.9,3.3s-2.9,3.3-5.7,3.3H7.3c-3.1,0-5.9,0-5.9-3.3s3.1-3.3,5.1-3.3
		c6.9,0,15.7,0,17.8-10.6c0.6-3.3,0.6-15.9,0.6-26.9c0-9.6,0-53.3-0.6-56.7C22.4,8.2,13.6,7.6,8.7,7.6c-5.1,0-7.3,0-7.3-3.3
		c0-3.5,2.9-3.5,5.9-3.5L60.3,0.9L60.3,0.9z"/>
</g>
<circle class="st2" cx="71.7" cy="40.4" r="32.9"/>
<circle class="st2" cx="71.7" cy="40.4" r="15.9"/>
<circle class="st2" cx="71.7" cy="40.4" r="15.9"/>
<circle class="st2" cx="71.7" cy="40.4" r="9.7"/>
<circle class="st3" cx="84.3" cy="27.8" r="8.3"/>
</svg>
