<?xml version="1.0" encoding="utf-8"?>
<!-- Generator: Adobe Illustrator 24.3.0, SVG Export Plug-In . SVG Version: 6.00 Build 0)  -->
<svg version="1.1" id="レイヤー_1" xmlns="http://www.w3.org/2000/svg" xmlns:xlink="http://www.w3.org/1999/xlink" x="0px"
	 y="0px" viewBox="0 0 190 120" style="enable-background:new 0 0 190 120;" xml:space="preserve">
<style type="text/css">
	.st0{enable-background:new    ;}
	.st1{fill:#887777;}
</style>
<g class="st0">
	<path class="st1" d="M46.9,0.8c6.1,0,45.7,0,45.7,30.3c0,16.7-12.8,31.2-41.5,31.2H35.7c-4.3,0-4.3,1.3-4.3,13.5
		c0,29.3,0,29.5,1.8,32.2c2.6,3.7,6.6,4.5,10.7,4.5c3.5,0,5.4,0,5.4,2.6c0,2.6-2.2,2.6-4.5,2.6H5.3c-2.4,0-4.6,0-4.6-2.6
		c0-2.6,2.4-2.6,4-2.6c5.4,0,12.3,0,13.9-8.3c0.5-2.6,0.5-2.7,0.5-45.3c0-7.5,0-41.8-0.5-44.5c-1.4-7.7-8.3-8.2-12.2-8.2
		c-4,0-5.8,0-5.8-2.6c0-2.7,2.2-2.7,4.6-2.7H46.9z M47.9,57C69,57,77.4,45.3,77.4,31.7c0-17.6-13-25.6-27.6-25.6h-6.9
		c-11.5,0-11.5,7-11.5,21c0,2.2,0,25,0.2,26.4c0.3,2.4,2.1,3.5,4.2,3.5H47.9z"/>
</g>
<g class="st0">
	<path class="st1" d="M43,117.6c-0.8,0-1.9,0-1.9-1.4c0-1.3,1-1.4,2.6-1.4c1.1,0,2.6-0.5,3.4-2.4c0.7-1.4,0.7-13.8,0.7-16.8
		c0-2.4-0.1-12.2-0.5-13.4c-0.4-1-1.4-1.4-2.4-1.4c-0.4,0-2.5,0.3-2.6,0.3c-0.3,0-0.8-0.2-0.8-0.8c0-0.6,0.4-0.8,4.2-1.9
		c1.1-0.3,6.3-2.3,7-2.3c0.8,0,0.8,0.8,0.8,1.6c0,3.8-0.1,22.8-0.1,27.1c0,6.2,0,9.7,3.9,10c1.7,0.1,2.7,0.2,2.7,1.4
		c0,1.4-1.4,1.4-2,1.4H43z M45.7,69.4c0-2.7,2.2-4.9,4.9-4.8c2.7,0,4.9,2.1,4.9,4.8c0,2.7-2.2,4.9-4.9,4.9
		C47.8,74.3,45.7,72.1,45.7,69.4z"/>
	<path class="st1" d="M69.7,119.2c-7.9,0-17.6-5-17.6-20.6c0-13,7.4-22.5,19.5-22.5c6.8,0,13.1,3.4,13.1,8c0,2.9-2.2,4.4-4.6,4.4
		c-3.5,0-3.8-3-4-5.1c-0.5-5.1-5.3-5.1-5.7-5.1c-6.1,0-11.2,7.8-11.2,18.8c0,11.6,5.7,18.3,12.8,18.3c4.1,0,8.5-2.3,11.3-5.7
		c0.8-1,1.1-1.4,1.8-1.4c0.3,0,0.8,0.3,0.8,1C86,110.7,80.2,119.2,69.7,119.2z"/>
	<path class="st1" d="M81.1,80.4c-0.9,0-2.3,0-2.3-1.4c0-1.1,0.4-1.2,2.9-1.5c1.4-0.2,8.5-1.9,8.5-12.7c0-0.8,0-1.9,1.1-1.9
		c1.4,0,1.4,1.3,1.4,1.8v10.9c0,0.8,0.3,2.1,2.1,2.1h9c0.8,0,2.4,0.2,2.4,1.4c0,0.5-0.5,1.4-2.3,1.4h-9c-0.3,0-1.5,0.1-1.9,1.1
		c-0.3,0.9-0.3,10.4-0.3,12.1c0,2.5,0,16.1,0.3,17.2c1.1,4.7,5,4.7,5.8,4.7c1.8,0,3.8-0.7,5.7-2.1c0.5-0.3,2.5-2.3,3-2.3
		c0.3,0,0.5,0.3,0.5,0.7c0,1.5-5.2,7.4-12.3,7.4c-8.9,0-8.9-6.7-8.9-15.2c0-0.3,0.2-18.6,0-21.5c0-0.4-0.1-2.1-2.1-2.1H81.1z"/>
	<path class="st1" d="M129.1,117.6c-0.9,0-1.6-0.7-1.6-1.7c-0.1-1.9-0.1-2.5-0.8-2.5c-0.5,0-2.2,1.7-2.6,1.9
		c-1.1,0.8-5.2,3.9-10.3,3.9c-2.5,0-11.4-0.8-12-13.1c-0.1-1.8,0.1-10.4,0.1-12.3c0-2,0-11.2-0.4-12.3c-0.3-0.9-1.3-1.1-2.1-1.1
		c-0.3,0-2.1,0.2-2.5,0.2c-0.6,0-0.8-0.4-0.8-0.8c0-0.7,0.3-0.8,3.4-1.6c2.5-0.8,7.5-2.1,7.7-2.1c0.3,0,0.7,0.2,0.8,0.7
		c0,0.1,0.1,22,0.1,24.4c0,5,0,7.2,0.8,9.4c1.4,3.5,4.4,5,7.4,5c3.6,0,9-3,10.5-6.2c1.1-2.1,1.2-15,1.2-18c0-8.4,0-11-3.2-11
		c-0.4,0-2.5,0.3-2.9,0.3c-0.8,0-1-0.5-1-0.7c0-0.9,0.6-1.1,6.2-2.5c1.4-0.3,5.6-1.4,5.9-1.4s0.7,0.3,0.8,0.7c0.2,0.7,0,14.4,0,17.1
		c0,2.2,0.2,13,0.2,15.5c0,1.8,0,5.5,4.2,5.5c1,0,2.3,0,2.3,1.4c0,0.6-0.4,1.4-1.4,1.4H129.1z"/>
	<path class="st1" d="M132.4,117.6c-0.6,0-2.2,0-2.2-1.4c0-1.4,0.8-1.4,3.2-1.4c1,0,2.8-0.1,3.9-1.9c0.8-1.2,0.9-2.2,0.9-14
		c0-2.7,0-15-0.5-16.5c-0.3-0.9-1.3-1.6-2.6-1.6c-0.6,0-3.5,0.8-4.1,0.8c-0.5,0-0.8-0.4-0.8-0.8c0-0.7,0.4-0.8,4.1-1.9
		c1.2-0.3,8.9-2.8,9.3-2.8c0.3,0,0.3,0.1,0.4,0.3V80c0,4.5,0,5,0.8,5c0.4,0,0.6-0.2,1.8-1.7c0.7-0.9,5.7-7.3,11.9-7.3
		c3.1,0,5,1.9,5,4.8c0,2.8-2.2,4.5-4.2,4.5c-1.8,0-2.6-0.9-3.3-1.8c-0.5-0.5-1.3-1.4-2.5-1.4c-2.1,0-5.6,2.5-7.2,5.5
		c-2,3.6-2.4,5.6-2.4,18.1c0,7.7,0.3,9.1,6.2,9.1c0.7,0,1.8,0.3,1.8,1.4c0,1.4-1.5,1.4-2.2,1.4H132.4z"/>
	<path class="st1" d="M163.7,95.4c-1.1,0-2.7,0-2.7,2.7c0,10.3,7,17.4,14,17.4c3.9,0,7.6-2.3,10.2-4.7c0.5-0.4,2.5-3.3,3.2-3.3
		c0.4,0,0.8,0.4,0.8,1.1c0,1.9-5.9,10.6-17.1,10.6c-11.8,0-18.5-9.4-18.5-21.6c0-14,8.7-21.5,17.9-21.5c13.1,0,16.8,13.9,16.8,17.4
		c0,1.5-0.8,1.9-2.5,1.9H163.7z M179.3,92.6c1.9,0,2.8-0.4,2.8-2.5c0-3.2-3-11.8-10.1-11.8c-7.9,0-10.3,10.6-10.3,12.4
		c0,1.9,1.4,1.9,2.2,1.9H179.3z"/>
</g>
</svg>
